<svg width="20" height="20" viewBox="0 0 20 20" fill="none" xmlns="http://www.w3.org/2000/svg">
<g clip-path="url(#clip0_51_2230)">
<path d="M10.6055 1.80167C10.3901 1.70343 10.1561 1.65259 9.91939 1.65259C9.68265 1.65259 9.44868 1.70343 9.2333 1.80167L2.14918 5.02548C2.0025 5.09016 1.87779 5.1961 1.79023 5.33039C1.70268 5.46468 1.65607 5.62153 1.65607 5.78184C1.65607 5.94215 1.70268 6.099 1.79023 6.23329C1.87779 6.36758 2.0025 6.47352 2.14918 6.53819L9.24156 9.77027C9.45695 9.86851 9.69092 9.91936 9.92766 9.91936C10.1644 9.91936 10.3984 9.86851 10.6137 9.77027L17.7061 6.54646C17.8528 6.48178 17.9775 6.37585 18.0651 6.24156C18.1526 6.10727 18.1992 5.95041 18.1992 5.7901C18.1992 5.62979 18.1526 5.47294 18.0651 5.33865C17.9775 5.20436 17.8528 5.09843 17.7061 5.03375L10.6055 1.80167Z" stroke="white" stroke-width="1.65324" stroke-linecap="round" stroke-linejoin="round"/>
<path d="M1.65326 9.91943C1.65287 10.0775 1.69783 10.2324 1.78281 10.3658C1.86778 10.4991 1.98922 10.6053 2.1327 10.6717L9.24161 13.9037C9.45587 14.0008 9.68837 14.0509 9.92357 14.0509C10.1588 14.0509 10.3913 14.0008 10.6055 13.9037L17.6979 10.6799C17.8442 10.6142 17.9682 10.5072 18.0548 10.3722C18.1414 10.2372 18.1869 10.0798 18.1856 9.91943" stroke="white" stroke-width="1.65324" stroke-linecap="round" stroke-linejoin="round"/>
<path d="M1.65326 14.0527C1.65287 14.2108 1.69783 14.3657 1.78281 14.4991C1.86778 14.6324 1.98922 14.7386 2.1327 14.805L9.24161 18.037C9.45587 18.1341 9.68837 18.1842 9.92357 18.1842C10.1588 18.1842 10.3913 18.1341 10.6055 18.037L17.6979 14.8132C17.8442 14.7475 17.9682 14.6405 18.0548 14.5055C18.1414 14.3705 18.1869 14.2131 18.1856 14.0527" stroke="white" stroke-width="1.65324" stroke-linecap="round" stroke-linejoin="round"/>
</g>
<defs>
<clipPath id="clip0_51_2230">
<rect width="19.8388" height="19.8388" fill="white"/>
</clipPath>
</defs>
</svg>
