<svg width="20" height="20" viewBox="0 0 20 20" fill="none" xmlns="http://www.w3.org/2000/svg">
<path d="M3.30655 11.5724C3.15012 11.573 2.99676 11.5291 2.86427 11.446C2.73178 11.3628 2.62561 11.2437 2.55809 11.1026C2.49057 10.9615 2.46447 10.8042 2.48282 10.6488C2.50118 10.4935 2.56324 10.3465 2.66179 10.2251L10.8453 1.79356C10.9067 1.7227 10.9903 1.67482 11.0825 1.65777C11.1747 1.64072 11.27 1.65552 11.3526 1.69974C11.4353 1.74396 11.5005 1.81496 11.5375 1.90111C11.5744 1.98725 11.5811 2.08341 11.5562 2.1738L9.96909 7.15004C9.92229 7.27529 9.90657 7.41003 9.92328 7.54269C9.94 7.67535 9.98864 7.80198 10.065 7.91171C10.1415 8.02144 10.2433 8.11099 10.362 8.1727C10.4806 8.2344 10.6124 8.26641 10.7461 8.26597H16.5324C16.6889 8.26544 16.8422 8.3093 16.9747 8.39246C17.1072 8.47563 17.2134 8.59467 17.2809 8.73578C17.3484 8.87688 17.3745 9.03424 17.3562 9.18959C17.3378 9.34493 17.2757 9.49188 17.1772 9.61336L8.99368 18.0449C8.93229 18.1157 8.84864 18.1636 8.75645 18.1806C8.66427 18.1977 8.56902 18.1829 8.48636 18.1387C8.40369 18.0945 8.33851 18.0235 8.30152 17.9373C8.26453 17.8512 8.25792 17.755 8.28279 17.6646L9.86989 12.6884C9.91669 12.5631 9.93241 12.4284 9.91569 12.2957C9.89898 12.1631 9.85034 12.0364 9.77393 11.9267C9.69753 11.817 9.59564 11.7274 9.47702 11.6657C9.3584 11.604 9.22658 11.572 9.09287 11.5724H3.30655Z" stroke="white" stroke-width="1.65324" stroke-linecap="round" stroke-linejoin="round"/>
</svg>
