<svg width="20" height="20" viewBox="0 0 20 20" fill="none" xmlns="http://www.w3.org/2000/svg">
<path d="M17.6069 12.6473C17.7919 12.8316 17.9386 13.0506 18.0387 13.2918C18.1389 13.5329 18.1904 13.7915 18.1904 14.0526C18.1904 14.3137 18.1389 14.5722 18.0387 14.8134C17.9386 15.0545 17.7919 15.2735 17.6069 15.4578L15.4577 17.607C15.2734 17.792 15.0544 17.9387 14.8132 18.0389C14.5721 18.139 14.3136 18.1905 14.0524 18.1905C13.7913 18.1905 13.5328 18.139 13.2917 18.0389C13.0505 17.9387 12.8315 17.792 12.6472 17.607L2.23182 7.19164C1.8603 6.81833 1.65173 6.31308 1.65173 5.78639C1.65173 5.25971 1.8603 4.75446 2.23182 4.38114L4.38102 2.23194C4.75434 1.86042 5.25959 1.65186 5.78627 1.65186C6.31295 1.65186 6.8182 1.86042 7.19152 2.23194L17.6069 12.6473Z" stroke="white" stroke-width="1.65324" stroke-linecap="round" stroke-linejoin="round"/>
<path d="M11.986 10.3324L13.6392 8.6792" stroke="white" stroke-width="1.65324" stroke-linecap="round" stroke-linejoin="round"/>
<path d="M9.50598 7.85245L11.1592 6.19922" stroke="white" stroke-width="1.65324" stroke-linecap="round" stroke-linejoin="round"/>
<path d="M7.02612 5.37296L8.67936 3.71973" stroke="white" stroke-width="1.65324" stroke-linecap="round" stroke-linejoin="round"/>
<path d="M14.4657 12.8124L16.1189 11.1592" stroke="white" stroke-width="1.65324" stroke-linecap="round" stroke-linejoin="round"/>
</svg>
