<svg width="20" height="20" viewBox="0 0 20 20" fill="none" xmlns="http://www.w3.org/2000/svg">
<g clip-path="url(#clip0_49_432)">
<path d="M16.1257 10.4818C16.1257 14.5132 13.3037 16.529 9.94952 17.6981C9.77388 17.7576 9.58309 17.7547 9.40931 17.69C6.0471 16.529 3.2251 14.5132 3.2251 10.4818V4.83781C3.2251 4.62397 3.31005 4.41889 3.46125 4.26768C3.61246 4.11647 3.81754 4.03152 4.03138 4.03152C5.64395 4.03152 7.65967 3.06398 9.06261 1.83843C9.23342 1.69249 9.45071 1.6123 9.67538 1.6123C9.90005 1.6123 10.1173 1.69249 10.2882 1.83843C11.6992 3.07204 13.7068 4.03152 15.3194 4.03152C15.5332 4.03152 15.7383 4.11647 15.8895 4.26768C16.0407 4.41889 16.1257 4.62397 16.1257 4.83781V10.4818Z" stroke="#0A0A0A" stroke-width="1.61257" stroke-linecap="round" stroke-linejoin="round"/>
<path d="M7.25635 9.6758L8.86892 11.2884L12.0941 8.06323" stroke="#0A0A0A" stroke-width="1.61257" stroke-linecap="round" stroke-linejoin="round"/>
</g>
<defs>
<clipPath id="clip0_49_432">
<rect width="19.3509" height="19.3509" fill="white"/>
</clipPath>
</defs>
</svg>
