<svg width="33" height="33" viewBox="0 0 33 33" fill="none" xmlns="http://www.w3.org/2000/svg">
<path d="M20.1569 2.68774H8.06262C7.34982 2.68774 6.66621 2.9709 6.16219 3.47493C5.65816 3.97896 5.375 4.66256 5.375 5.37536V26.8763C5.375 27.5891 5.65816 28.2727 6.16219 28.7768C6.66621 29.2808 7.34982 29.5639 8.06262 29.5639H24.1883C24.9011 29.5639 25.5847 29.2808 26.0888 28.7768C26.5928 28.2727 26.876 27.5891 26.876 26.8763V9.40679L20.1569 2.68774Z" stroke="white" stroke-width="2.68762" stroke-linecap="round" stroke-linejoin="round"/>
<path d="M18.8135 2.68774V8.06298C18.8135 8.77578 19.0966 9.45939 19.6007 9.96342C20.1047 10.4674 20.7883 10.7506 21.5011 10.7506H26.8763" stroke="white" stroke-width="2.68762" stroke-linecap="round" stroke-linejoin="round"/>
<path d="M12.0942 20.1571L14.7819 22.8447L20.1571 17.4695" stroke="white" stroke-width="2.68762" stroke-linecap="round" stroke-linejoin="round"/>
</svg>
