<svg width="20" height="20" viewBox="0 0 20 20" fill="none" xmlns="http://www.w3.org/2000/svg">
<g clip-path="url(#clip0_49_426)">
<path d="M9.85291 1.61279H9.49815C9.07047 1.61279 8.6603 1.78269 8.35789 2.0851C8.05547 2.38752 7.88558 2.79768 7.88558 3.22536V3.3705C7.88529 3.65328 7.81064 3.93102 7.66912 4.17584C7.5276 4.42067 7.32419 4.62398 7.07929 4.76537L6.73259 4.96694C6.48745 5.10847 6.20937 5.18299 5.9263 5.18299C5.64324 5.18299 5.36516 5.10847 5.12002 4.96694L4.99907 4.90244C4.62904 4.68898 4.18943 4.63108 3.77675 4.74143C3.36406 4.85178 3.01202 5.12137 2.79791 5.49103L2.62053 5.79742C2.40708 6.16745 2.34917 6.60706 2.45952 7.01974C2.56987 7.43243 2.83947 7.78447 3.20912 7.99858L3.33006 8.0792C3.57378 8.21991 3.77644 8.42195 3.91789 8.66524C4.05933 8.90853 4.13465 9.1846 4.13635 9.46602V9.87722C4.13748 10.1614 4.0635 10.4408 3.92191 10.6871C3.78032 10.9335 3.57615 11.1381 3.33006 11.2802L3.20912 11.3527C2.83947 11.5668 2.56987 11.9189 2.45952 12.3316C2.34917 12.7442 2.40708 13.1839 2.62053 13.5539L2.79791 13.8603C3.01202 14.2299 3.36406 14.4995 3.77675 14.6099C4.18943 14.7202 4.62904 14.6623 4.99907 14.4489L5.12002 14.3844C5.36516 14.2428 5.64324 14.1683 5.9263 14.1683C6.20937 14.1683 6.48745 14.2428 6.73259 14.3844L7.07929 14.5859C7.32419 14.7273 7.5276 14.9306 7.66912 15.1755C7.81064 15.4203 7.88529 15.698 7.88558 15.9808V16.1259C7.88558 16.5536 8.05547 16.9638 8.35789 17.2662C8.6603 17.5686 9.07047 17.7385 9.49815 17.7385H9.85291C10.2806 17.7385 10.6908 17.5686 10.9932 17.2662C11.2956 16.9638 11.4655 16.5536 11.4655 16.1259V15.9808C11.4658 15.698 11.5404 15.4203 11.6819 15.1755C11.8235 14.9306 12.0269 14.7273 12.2718 14.5859L12.6185 14.3844C12.8636 14.2428 13.1417 14.1683 13.4248 14.1683C13.7078 14.1683 13.9859 14.2428 14.231 14.3844L14.352 14.4489C14.722 14.6623 15.1616 14.7202 15.5743 14.6099C15.987 14.4995 16.339 14.2299 16.5531 13.8603L16.7305 13.5458C16.944 13.1758 17.0019 12.7362 16.8915 12.3235C16.7812 11.9108 16.5116 11.5588 16.1419 11.3447L16.021 11.2802C15.7749 11.1381 15.5707 10.9335 15.4292 10.6871C15.2876 10.4408 15.2136 10.1614 15.2147 9.87722V9.47408C15.2136 9.18993 15.2876 8.91052 15.4292 8.66416C15.5707 8.41779 15.7749 8.21322 16.021 8.07114L16.1419 7.99858C16.5116 7.78447 16.7812 7.43243 16.8915 7.01974C17.0019 6.60706 16.944 6.16745 16.7305 5.79742L16.5531 5.49103C16.339 5.12137 15.987 4.85178 15.5743 4.74143C15.1616 4.63108 14.722 4.68898 14.352 4.90244L14.231 4.96694C13.9859 5.10847 13.7078 5.18299 13.4248 5.18299C13.1417 5.18299 12.8636 5.10847 12.6185 4.96694L12.2718 4.76537C12.0269 4.62398 11.8235 4.42067 11.6819 4.17584C11.5404 3.93102 11.4658 3.65328 11.4655 3.3705V3.22536C11.4655 2.79768 11.2956 2.38752 10.9932 2.0851C10.6908 1.78269 10.2806 1.61279 9.85291 1.61279Z" stroke="#0A0A0A" stroke-width="1.61257" stroke-linecap="round" stroke-linejoin="round"/>
<path d="M9.6752 12.0946C11.0111 12.0946 12.0941 11.0116 12.0941 9.67569C12.0941 8.3398 11.0111 7.25684 9.6752 7.25684C8.33931 7.25684 7.25635 8.3398 7.25635 9.67569C7.25635 11.0116 8.33931 12.0946 9.6752 12.0946Z" stroke="#0A0A0A" stroke-width="1.61257" stroke-linecap="round" stroke-linejoin="round"/>
</g>
<defs>
<clipPath id="clip0_49_426">
<rect width="19.3509" height="19.3509" fill="white"/>
</clipPath>
</defs>
</svg>
