<svg width="20" height="20" viewBox="0 0 20 20" fill="none" xmlns="http://www.w3.org/2000/svg">
<g clip-path="url(#clip0_49_419)">
<path d="M12.0942 1.61279H4.83767C4.40999 1.61279 3.99982 1.78269 3.69741 2.0851C3.39499 2.38752 3.2251 2.79768 3.2251 3.22536V16.1259C3.2251 16.5536 3.39499 16.9638 3.69741 17.2662C3.99982 17.5686 4.40999 17.7385 4.83767 17.7385H14.5131C14.9408 17.7385 15.3509 17.5686 15.6534 17.2662C15.9558 16.9638 16.1257 16.5536 16.1257 16.1259V5.64422L12.0942 1.61279Z" stroke="white" stroke-width="1.61257" stroke-linecap="round" stroke-linejoin="round"/>
<path d="M11.2881 1.61279V4.83794C11.2881 5.26562 11.458 5.67578 11.7604 5.9782C12.0628 6.28061 12.473 6.45051 12.9007 6.45051H16.1258" stroke="white" stroke-width="1.61257" stroke-linecap="round" stroke-linejoin="round"/>
<path d="M7.25635 12.0945L8.86892 13.7071L12.0941 10.4819" stroke="white" stroke-width="1.61257" stroke-linecap="round" stroke-linejoin="round"/>
</g>
<defs>
<clipPath id="clip0_49_419">
<rect width="19.3509" height="19.3509" fill="white"/>
</clipPath>
</defs>
</svg>
