<svg width="35" height="35" viewBox="0 0 35 35" fill="none" xmlns="http://www.w3.org/2000/svg">
<g opacity="0.8">
<path d="M28.3735 18.4426C28.3735 25.536 23.4081 29.0826 17.5065 31.1397C17.1974 31.2444 16.8618 31.2394 16.556 31.1255C10.6401 29.0826 5.6748 25.536 5.6748 18.4426V8.51197C5.6748 8.13572 5.82427 7.77488 6.09032 7.50883C6.35637 7.24277 6.71722 7.09331 7.09347 7.09331C9.9308 7.09331 13.4775 5.39091 15.946 3.23453C16.2465 2.97775 16.6288 2.83667 17.0241 2.83667C17.4194 2.83667 17.8018 2.97775 18.1023 3.23453C20.585 5.40509 24.1175 7.09331 26.9548 7.09331C27.3311 7.09331 27.6919 7.24277 27.958 7.50883C28.224 7.77488 28.3735 8.13572 28.3735 8.51197V18.4426Z" stroke="#EA543F" stroke-width="2.83733" stroke-linecap="round" stroke-linejoin="round"/>
</g>
</svg>
