<svg width="35" height="35" viewBox="0 0 35 35" fill="none" xmlns="http://www.w3.org/2000/svg">
<g opacity="0.8">
<path d="M28.373 18.4426C28.373 25.536 23.4076 29.0826 17.506 31.1397C17.197 31.2444 16.8613 31.2394 16.5555 31.1255C10.6396 29.0826 5.67432 25.536 5.67432 18.4426V8.51197C5.67432 8.13572 5.82378 7.77488 6.08983 7.50883C6.35589 7.24277 6.71673 7.09331 7.09298 7.09331C9.93032 7.09331 13.477 5.39091 15.9455 3.23453C16.246 2.97775 16.6283 2.83667 17.0236 2.83667C17.419 2.83667 17.8013 2.97775 18.1018 3.23453C20.5845 5.40509 24.117 7.09331 26.9543 7.09331C27.3306 7.09331 27.6914 7.24277 27.9575 7.50883C28.2235 7.77488 28.373 8.13572 28.373 8.51197V18.4426Z" stroke="#EA543F" stroke-width="2.83733" stroke-linecap="round" stroke-linejoin="round"/>
</g>
</svg>
