<svg width="45" height="45" viewBox="0 0 45 45" fill="none" xmlns="http://www.w3.org/2000/svg">
<path d="M27.8459 3.7124H16.7075C15.6822 3.7124 14.8511 4.54354 14.8511 5.56881V9.28161C14.8511 10.3069 15.6822 11.138 16.7075 11.138H27.8459C28.8712 11.138 29.7023 10.3069 29.7023 9.28161V5.56881C29.7023 4.54354 28.8712 3.7124 27.8459 3.7124Z" stroke="white" stroke-width="2.78461" stroke-linecap="round" stroke-linejoin="round"/>
<path d="M29.7026 7.42529H33.4154C34.4001 7.42529 35.3445 7.81646 36.0408 8.51275C36.7371 9.20904 37.1282 10.1534 37.1282 11.1381V37.1278C37.1282 38.1125 36.7371 39.0568 36.0408 39.7531C35.3445 40.4494 34.4001 40.8406 33.4154 40.8406H11.1386C10.1539 40.8406 9.20952 40.4494 8.51324 39.7531C7.81695 39.0568 7.42578 38.1125 7.42578 37.1278V11.1381C7.42578 10.1534 7.81695 9.20904 8.51324 8.51275C9.20952 7.81646 10.1539 7.42529 11.1386 7.42529H14.8514" stroke="white" stroke-width="2.78461" stroke-linecap="round" stroke-linejoin="round"/>
<path d="M16.7075 25.9897L20.4203 29.7025L27.8459 22.2769" stroke="white" stroke-width="2.78461" stroke-linecap="round" stroke-linejoin="round"/>
</svg>
