<svg width="45" height="45" viewBox="0 0 45 45" fill="none" xmlns="http://www.w3.org/2000/svg">
<path d="M38.9846 14.8504C38.9839 14.1993 38.8121 13.5599 38.4862 12.9962C38.1604 12.4325 37.6921 11.9644 37.1282 11.6389L24.1334 4.21324C23.569 3.88738 22.9287 3.71582 22.277 3.71582C21.6252 3.71582 20.985 3.88738 20.4206 4.21324L7.42574 11.6389C6.86188 11.9644 6.39354 12.4325 6.06771 12.9962C5.74188 13.5599 5.57 14.1993 5.56934 14.8504V29.7017C5.57 30.3528 5.74188 30.9922 6.06771 31.5559C6.39354 32.1196 6.86188 32.5877 7.42574 32.9132L20.4206 40.3389C20.985 40.6647 21.6252 40.8363 22.277 40.8363C22.9287 40.8363 23.569 40.6647 24.1334 40.3389L37.1282 32.9132C37.6921 32.5877 38.1604 32.1196 38.4862 31.5559C38.8121 30.9922 38.9839 30.3528 38.9846 29.7017V14.8504Z" stroke="white" stroke-width="2.78461" stroke-linecap="round" stroke-linejoin="round"/>
<path d="M6.12598 12.9946L22.2767 22.2766L38.4274 12.9946" stroke="white" stroke-width="2.78461" stroke-linecap="round" stroke-linejoin="round"/>
<path d="M22.2769 40.8409V22.2769" stroke="white" stroke-width="2.78461" stroke-linecap="round" stroke-linejoin="round"/>
</svg>
