<svg width="45" height="45" viewBox="0 0 45 45" fill="none" xmlns="http://www.w3.org/2000/svg">
<path d="M27.2893 11.6949C26.9491 12.0419 26.7586 12.5084 26.7586 12.9943C26.7586 13.4803 26.9491 13.9468 27.2893 14.2938L30.2595 17.2641C30.6065 17.6042 31.0731 17.7947 31.559 17.7947C32.0449 17.7947 32.5115 17.6042 32.8585 17.2641L39.8571 10.2654C40.7906 12.3282 41.0732 14.6266 40.6674 16.8541C40.2615 19.0816 39.1864 21.1325 37.5854 22.7336C35.9844 24.3346 33.9334 25.4097 31.7059 25.8155C29.4784 26.2214 27.1801 25.9387 25.1173 25.0053L12.2895 37.833C11.551 38.5715 10.5494 38.9864 9.50492 38.9864C8.46049 38.9864 7.45884 38.5715 6.72032 37.833C5.98179 37.0945 5.56689 36.0928 5.56689 35.0484C5.56689 34.004 5.98179 33.0023 6.72032 32.2638L19.5481 19.4361C18.6146 17.3733 18.332 15.0749 18.7378 12.8474C19.1437 10.6199 20.2188 8.56897 21.8198 6.96794C23.4208 5.36692 25.4717 4.29184 27.6993 3.88598C29.9268 3.48012 32.2251 3.76276 34.2879 4.69622L27.3078 11.6763L27.2893 11.6949Z" stroke="white" stroke-width="2.78461" stroke-linecap="round" stroke-linejoin="round"/>
</svg>
