<svg width="45" height="45" viewBox="0 0 45 45" fill="none" xmlns="http://www.w3.org/2000/svg">
<path d="M14.851 40.8407C15.8763 40.8407 16.7074 40.0096 16.7074 38.9843C16.7074 37.9591 15.8763 37.1279 14.851 37.1279C13.8258 37.1279 12.9946 37.9591 12.9946 38.9843C12.9946 40.0096 13.8258 40.8407 14.851 40.8407Z" stroke="white" stroke-width="2.78461" stroke-linecap="round" stroke-linejoin="round"/>
<path d="M35.2719 40.8407C36.2972 40.8407 37.1283 40.0096 37.1283 38.9843C37.1283 37.9591 36.2972 37.1279 35.2719 37.1279C34.2467 37.1279 33.4155 37.9591 33.4155 38.9843C33.4155 40.0096 34.2467 40.8407 35.2719 40.8407Z" stroke="white" stroke-width="2.78461" stroke-linecap="round" stroke-linejoin="round"/>
<path d="M3.80566 3.80518H7.51847L12.4565 26.8617C12.6377 27.7061 13.1075 28.461 13.7852 28.9963C14.4628 29.5317 15.3059 29.814 16.1693 29.7948H34.3249C35.1699 29.7935 35.9892 29.5039 36.6474 28.974C37.3055 28.4441 37.7633 27.7055 37.9449 26.8803L41.008 13.0872H9.50482" stroke="white" stroke-width="2.78461" stroke-linecap="round" stroke-linejoin="round"/>
</svg>
