<svg width="45" height="45" viewBox="0 0 45 45" fill="none" xmlns="http://www.w3.org/2000/svg">
<path d="M22.2765 37.1278C26.2153 37.1278 29.9928 35.5631 32.7779 32.7779C35.5631 29.9928 37.1278 26.2153 37.1278 22.2765C37.1278 18.3377 35.5631 14.5603 32.7779 11.7751C29.9928 8.98997 26.2153 7.42529 22.2765 7.42529C18.3377 7.42529 14.5603 8.98997 11.7751 11.7751C8.98997 14.5603 7.42529 18.3377 7.42529 22.2765C7.42529 26.2153 8.98997 29.9928 11.7751 32.7779C14.5603 35.5631 18.3377 37.1278 22.2765 37.1278Z" stroke="white" stroke-width="2.78461" stroke-linecap="round" stroke-linejoin="round"/>
<path d="M22.2768 25.9896C23.2615 25.9896 24.2058 25.5984 24.9021 24.9021C25.5984 24.2058 25.9896 23.2615 25.9896 22.2768C25.9896 21.2921 25.5984 20.3477 24.9021 19.6514C24.2058 18.9551 23.2615 18.564 22.2768 18.564C21.2921 18.564 20.3477 18.9551 19.6514 19.6514C18.9551 20.3477 18.564 21.2921 18.564 22.2768C18.564 23.2615 18.9551 24.2058 19.6514 24.9021C20.3477 25.5984 21.2921 25.9896 22.2768 25.9896Z" stroke="white" stroke-width="2.78461" stroke-linecap="round" stroke-linejoin="round"/>
<path d="M22.2769 3.7124V7.42521" stroke="white" stroke-width="2.78461" stroke-linecap="round" stroke-linejoin="round"/>
<path d="M22.2769 40.8407V37.1279" stroke="white" stroke-width="2.78461" stroke-linecap="round" stroke-linejoin="round"/>
<path d="M31.5586 38.3527L29.7021 35.1411" stroke="white" stroke-width="2.78461" stroke-linecap="round" stroke-linejoin="round"/>
<path d="M20.4202 19.0651L12.9946 6.2002" stroke="white" stroke-width="2.78461" stroke-linecap="round" stroke-linejoin="round"/>
<path d="M38.3532 31.5586L35.1416 29.7021" stroke="white" stroke-width="2.78461" stroke-linecap="round" stroke-linejoin="round"/>
<path d="M6.2002 12.9946L9.41177 14.851" stroke="white" stroke-width="2.78461" stroke-linecap="round" stroke-linejoin="round"/>
<path d="M25.9897 22.2769H40.841" stroke="white" stroke-width="2.78461" stroke-linecap="round" stroke-linejoin="round"/>
<path d="M3.71289 22.2769H7.4257" stroke="white" stroke-width="2.78461" stroke-linecap="round" stroke-linejoin="round"/>
<path d="M38.3532 12.9946L35.1416 14.851" stroke="white" stroke-width="2.78461" stroke-linecap="round" stroke-linejoin="round"/>
<path d="M6.2002 31.5586L9.41177 29.7021" stroke="white" stroke-width="2.78461" stroke-linecap="round" stroke-linejoin="round"/>
<path d="M31.5586 6.2002L29.7021 9.41177" stroke="white" stroke-width="2.78461" stroke-linecap="round" stroke-linejoin="round"/>
<path d="M20.4202 25.4883L12.9946 38.3532" stroke="white" stroke-width="2.78461" stroke-linecap="round" stroke-linejoin="round"/>
</svg>
