<svg width="45" height="45" viewBox="0 0 45 45" fill="none" xmlns="http://www.w3.org/2000/svg">
<path d="M25.9897 33.4149V11.1381C25.9897 10.1534 25.5986 9.20904 24.9023 8.51275C24.206 7.81646 23.2616 7.42529 22.2769 7.42529H7.4257C6.441 7.42529 5.49663 7.81646 4.80035 8.51275C4.10406 9.20904 3.71289 10.1534 3.71289 11.1381V31.5585C3.71289 32.0509 3.90848 32.5231 4.25662 32.8712C4.60476 33.2194 5.07695 33.4149 5.56929 33.4149H9.2821" stroke="white" stroke-width="2.78461" stroke-linecap="round" stroke-linejoin="round"/>
<path d="M27.8459 33.4146H16.7075" stroke="white" stroke-width="2.78461" stroke-linecap="round" stroke-linejoin="round"/>
<path d="M35.2718 33.4151H38.9846C39.4769 33.4151 39.9491 33.2195 40.2973 32.8714C40.6454 32.5232 40.841 32.0511 40.841 31.5587V24.7828C40.8402 24.3615 40.6962 23.953 40.4326 23.6244L33.9723 15.5491C33.7987 15.3317 33.5784 15.156 33.3278 15.0352C33.0771 14.9144 32.8025 14.8515 32.5243 14.8511H25.9897" stroke="white" stroke-width="2.78461" stroke-linecap="round" stroke-linejoin="round"/>
<path d="M31.559 37.1278C33.6095 37.1278 35.2718 35.4655 35.2718 33.415C35.2718 31.3644 33.6095 29.7021 31.559 29.7021C29.5085 29.7021 27.8462 31.3644 27.8462 33.415C27.8462 35.4655 29.5085 37.1278 31.559 37.1278Z" stroke="white" stroke-width="2.78461" stroke-linecap="round" stroke-linejoin="round"/>
<path d="M12.995 37.1278C15.0456 37.1278 16.7078 35.4655 16.7078 33.415C16.7078 31.3644 15.0456 29.7021 12.995 29.7021C10.9445 29.7021 9.28223 31.3644 9.28223 33.415C9.28223 35.4655 10.9445 37.1278 12.995 37.1278Z" stroke="white" stroke-width="2.78461" stroke-linecap="round" stroke-linejoin="round"/>
</svg>
