<svg width="45" height="45" viewBox="0 0 45 45" fill="none" xmlns="http://www.w3.org/2000/svg">
<path d="M33.4154 7.42529H11.1386C9.08806 7.42529 7.42578 9.08757 7.42578 11.1381V33.4149C7.42578 35.4655 9.08806 37.1278 11.1386 37.1278H33.4154C35.466 37.1278 37.1282 35.4655 37.1282 33.4149V11.1381C37.1282 9.08757 35.466 7.42529 33.4154 7.42529Z" stroke="white" stroke-width="2.78461" stroke-linecap="round" stroke-linejoin="round"/>
<path d="M25.9895 16.7075H18.5639C17.5387 16.7075 16.7075 17.5387 16.7075 18.5639V25.9895C16.7075 27.0148 17.5387 27.8459 18.5639 27.8459H25.9895C27.0148 27.8459 27.8459 27.0148 27.8459 25.9895V18.5639C27.8459 17.5387 27.0148 16.7075 25.9895 16.7075Z" stroke="white" stroke-width="2.78461" stroke-linecap="round" stroke-linejoin="round"/>
<path d="M27.8462 3.7124V7.42521" stroke="white" stroke-width="2.78461" stroke-linecap="round" stroke-linejoin="round"/>
<path d="M27.8462 37.1279V40.8407" stroke="white" stroke-width="2.78461" stroke-linecap="round" stroke-linejoin="round"/>
<path d="M3.71289 27.8462H7.4257" stroke="white" stroke-width="2.78461" stroke-linecap="round" stroke-linejoin="round"/>
<path d="M3.71289 16.7075H7.4257" stroke="white" stroke-width="2.78461" stroke-linecap="round" stroke-linejoin="round"/>
<path d="M37.1279 27.8462H40.8407" stroke="white" stroke-width="2.78461" stroke-linecap="round" stroke-linejoin="round"/>
<path d="M37.1279 16.7075H40.8407" stroke="white" stroke-width="2.78461" stroke-linecap="round" stroke-linejoin="round"/>
<path d="M16.7075 3.7124V7.42521" stroke="white" stroke-width="2.78461" stroke-linecap="round" stroke-linejoin="round"/>
<path d="M16.7075 37.1279V40.8407" stroke="white" stroke-width="2.78461" stroke-linecap="round" stroke-linejoin="round"/>
</svg>
