<svg width="25" height="25" viewBox="0 0 25 25" fill="none" xmlns="http://www.w3.org/2000/svg">
<path d="M4.0338 14.1175C3.84298 14.1181 3.65589 14.0646 3.49427 13.9632C3.33264 13.8617 3.20312 13.7165 3.12075 13.5444C3.03839 13.3722 3.00655 13.1803 3.02894 12.9908C3.05133 12.8013 3.12704 12.622 3.24726 12.4738L13.2303 2.18821C13.3052 2.10178 13.4073 2.04336 13.5197 2.02257C13.6322 2.00177 13.7484 2.01982 13.8492 2.07376C13.9501 2.1277 14.0296 2.21433 14.0747 2.31941C14.1198 2.4245 14.1279 2.5418 14.0975 2.65207L12.1614 8.72259C12.1043 8.87538 12.0852 9.03975 12.1056 9.20158C12.126 9.36341 12.1853 9.51789 12.2785 9.65175C12.3717 9.78561 12.496 9.89486 12.6407 9.97013C12.7854 10.0454 12.9462 10.0844 13.1093 10.0839H20.1681C20.3589 10.0833 20.546 10.1368 20.7076 10.2382C20.8692 10.3397 20.9987 10.4849 21.0811 10.657C21.1635 10.8292 21.1953 11.0211 21.1729 11.2106C21.1505 11.4001 21.0748 11.5794 20.9546 11.7276L10.9715 22.0132C10.8966 22.0996 10.7946 22.158 10.6821 22.1788C10.5697 22.1996 10.4535 22.1816 10.3527 22.1276C10.2518 22.0737 10.1723 21.9871 10.1272 21.882C10.082 21.7769 10.074 21.6596 10.1043 21.5493L12.0404 15.4788C12.0975 15.326 12.1167 15.1616 12.0963 14.9998C12.0759 14.838 12.0166 14.6835 11.9234 14.5497C11.8302 14.4158 11.7059 14.3065 11.5612 14.2313C11.4165 14.156 11.2557 14.1169 11.0925 14.1175H4.0338Z" stroke="#EA543F" stroke-width="2.01678" stroke-linecap="round" stroke-linejoin="round"/>
</svg>
