<svg width="25" height="25" viewBox="0 0 25 25" fill="none" xmlns="http://www.w3.org/2000/svg">
<path d="M3.0249 7.05871V5.04193C3.0249 4.50704 3.23738 3.99407 3.6156 3.61585C3.99382 3.23763 4.5068 3.02515 5.04168 3.02515H7.05847" stroke="#EA543F" stroke-width="2.01678" stroke-linecap="round" stroke-linejoin="round"/>
<path d="M17.1426 3.02515H19.1594C19.6942 3.02515 20.2072 3.23763 20.5854 3.61585C20.9637 3.99407 21.1761 4.50704 21.1761 5.04193V7.05871" stroke="#EA543F" stroke-width="2.01678" stroke-linecap="round" stroke-linejoin="round"/>
<path d="M21.1761 17.1428V19.1596C21.1761 19.6945 20.9637 20.2075 20.5854 20.5857C20.2072 20.9639 19.6942 21.1764 19.1594 21.1764H17.1426" stroke="#EA543F" stroke-width="2.01678" stroke-linecap="round" stroke-linejoin="round"/>
<path d="M7.05847 21.1764H5.04168C4.5068 21.1764 3.99382 20.9639 3.6156 20.5857C3.23738 20.2075 3.0249 19.6945 3.0249 19.1596V17.1428" stroke="#EA543F" stroke-width="2.01678" stroke-linecap="round" stroke-linejoin="round"/>
<path d="M7.05908 12.1006H17.143" stroke="#EA543F" stroke-width="2.01678" stroke-linecap="round" stroke-linejoin="round"/>
</svg>
