<svg width="25" height="25" viewBox="0 0 25 25" fill="none" xmlns="http://www.w3.org/2000/svg">
<path d="M6.05029 18.1509H14.1174" stroke="#EA543F" stroke-width="2.01678" stroke-linecap="round" stroke-linejoin="round"/>
<path d="M3.0249 22.1846H21.1759" stroke="#EA543F" stroke-width="2.01678" stroke-linecap="round" stroke-linejoin="round"/>
<path d="M14.1173 22.1844C15.9894 22.1844 17.7848 21.4407 19.1086 20.1169C20.4323 18.7931 21.176 16.9977 21.176 15.1256C21.176 13.2535 20.4323 11.4581 19.1086 10.1344C17.7848 8.81058 15.9894 8.06689 14.1173 8.06689H13.1089" stroke="#EA543F" stroke-width="2.01678" stroke-linecap="round" stroke-linejoin="round"/>
<path d="M9.0752 14.1172H11.092" stroke="#EA543F" stroke-width="2.01678" stroke-linecap="round" stroke-linejoin="round"/>
<path d="M9.07538 12.1006C8.54049 12.1006 8.02752 11.8882 7.6493 11.5099C7.27108 11.1317 7.05859 10.6187 7.05859 10.0839V6.05029H13.1089V10.0839C13.1089 10.6187 12.8965 11.1317 12.5182 11.5099C12.14 11.8882 11.627 12.1006 11.0922 12.1006H9.07538Z" stroke="#EA543F" stroke-width="2.01678" stroke-linecap="round" stroke-linejoin="round"/>
<path d="M12.1005 6.05017V3.02499C12.1005 2.75755 11.9942 2.50106 11.8051 2.31195C11.616 2.12284 11.3595 2.0166 11.0921 2.0166H9.07529C8.80784 2.0166 8.55136 2.12284 8.36225 2.31195C8.17314 2.50106 8.06689 2.75755 8.06689 3.02499V6.05017" stroke="#EA543F" stroke-width="2.01678" stroke-linecap="round" stroke-linejoin="round"/>
</svg>
