<svg width="25" height="25" viewBox="0 0 25 25" fill="none" xmlns="http://www.w3.org/2000/svg">
<path d="M18.1512 4.03345H6.05047C4.93664 4.03345 4.03369 4.93639 4.03369 6.05023V18.1509C4.03369 19.2648 4.93664 20.1677 6.05047 20.1677H18.1512C19.265 20.1677 20.1679 19.2648 20.1679 18.1509V6.05023C20.1679 4.93639 19.265 4.03345 18.1512 4.03345Z" stroke="#EA543F" stroke-width="2.01678" stroke-linecap="round" stroke-linejoin="round"/>
<path d="M14.1172 9.07544H10.0836C9.52667 9.07544 9.0752 9.52691 9.0752 10.0838V14.1174C9.0752 14.6743 9.52667 15.1258 10.0836 15.1258H14.1172C14.6741 15.1258 15.1255 14.6743 15.1255 14.1174V10.0838C15.1255 9.52691 14.6741 9.07544 14.1172 9.07544Z" stroke="#EA543F" stroke-width="2.01678" stroke-linecap="round" stroke-linejoin="round"/>
<path d="M15.1255 2.01685V4.03363" stroke="#EA543F" stroke-width="2.01678" stroke-linecap="round" stroke-linejoin="round"/>
<path d="M15.1255 20.168V22.1848" stroke="#EA543F" stroke-width="2.01678" stroke-linecap="round" stroke-linejoin="round"/>
<path d="M2.0166 15.126H4.03338" stroke="#EA543F" stroke-width="2.01678" stroke-linecap="round" stroke-linejoin="round"/>
<path d="M2.0166 9.07544H4.03338" stroke="#EA543F" stroke-width="2.01678" stroke-linecap="round" stroke-linejoin="round"/>
<path d="M20.1675 15.126H22.1843" stroke="#EA543F" stroke-width="2.01678" stroke-linecap="round" stroke-linejoin="round"/>
<path d="M20.1675 9.07544H22.1843" stroke="#EA543F" stroke-width="2.01678" stroke-linecap="round" stroke-linejoin="round"/>
<path d="M9.0752 2.01685V4.03363" stroke="#EA543F" stroke-width="2.01678" stroke-linecap="round" stroke-linejoin="round"/>
<path d="M9.0752 20.168V22.1848" stroke="#EA543F" stroke-width="2.01678" stroke-linecap="round" stroke-linejoin="round"/>
</svg>
