<svg width="26" height="26" viewBox="0 0 26 26" fill="none" xmlns="http://www.w3.org/2000/svg">
<path d="M5.24661 20.4508C1.07079 16.275 1.07079 9.4224 5.24661 5.24658" stroke="#EA543F" stroke-width="2.14144" stroke-linecap="round" stroke-linejoin="round"/>
<path d="M8.35188 17.3458C5.88922 14.8831 5.88922 10.8144 8.35188 8.24463" stroke="#EA543F" stroke-width="2.14144" stroke-linecap="round" stroke-linejoin="round"/>
<path d="M12.8485 14.9899C14.0312 14.9899 14.9899 14.0312 14.9899 12.8485C14.9899 11.6658 14.0312 10.707 12.8485 10.707C11.6658 10.707 10.707 11.6658 10.707 12.8485C10.707 14.0312 11.6658 14.9899 12.8485 14.9899Z" stroke="#EA543F" stroke-width="2.14144" stroke-linecap="round" stroke-linejoin="round"/>
<path d="M17.3457 8.35156C19.8084 10.8142 19.8084 14.883 17.3457 17.4527" stroke="#EA543F" stroke-width="2.14144" stroke-linecap="round" stroke-linejoin="round"/>
<path d="M20.4507 5.24658C24.6265 9.4224 24.6265 16.1679 20.4507 20.3438" stroke="#EA543F" stroke-width="2.14144" stroke-linecap="round" stroke-linejoin="round"/>
</svg>
