<svg width="26" height="26" viewBox="0 0 26 26" fill="none" xmlns="http://www.w3.org/2000/svg">
<path d="M19.0591 20.5582L17.1318 11.7783L20.8793 8.03073C22.4854 6.42464 23.0207 4.2832 22.4854 3.21248C21.4147 2.67712 19.2732 3.21248 17.6671 4.81856L13.9196 8.56609L5.1397 6.63879C4.60434 6.53172 4.17605 6.74586 3.96191 7.17415L3.64069 7.70951C3.42655 8.24487 3.53362 8.78023 3.96191 9.10145L9.63673 12.849L7.49529 16.0611H4.28312L3.2124 17.1319L6.42457 19.2733L8.56601 22.4855L9.63673 21.4147V18.2026L12.8489 16.0611L16.5964 21.736C16.9176 22.1642 17.453 22.2713 17.9884 22.0572L18.5237 21.843C18.952 21.5218 19.1662 21.0935 19.0591 20.5582Z" stroke="#EA543F" stroke-width="2.14144" stroke-linecap="round" stroke-linejoin="round"/>
</svg>
