<svg width="26" height="26" viewBox="0 0 26 26" fill="none" xmlns="http://www.w3.org/2000/svg">
<path d="M2.1416 21.4146C2.1416 21.9825 2.36722 22.5272 2.76882 22.9288C3.17041 23.3304 3.7151 23.556 4.28304 23.556H21.4146C21.9825 23.556 22.5272 23.3304 22.9288 22.9288C23.3304 22.5272 23.556 21.9825 23.556 21.4146V8.56593L16.061 13.9195V8.56593L8.56593 13.9195V4.28304C8.56593 3.7151 8.34031 3.17041 7.93872 2.76882C7.53712 2.36722 6.99243 2.1416 6.42449 2.1416H4.28304C3.7151 2.1416 3.17041 2.36722 2.76882 2.76882C2.36722 3.17041 2.1416 3.7151 2.1416 4.28304V21.4146Z" stroke="#EA543F" stroke-width="2.14144" stroke-linecap="round" stroke-linejoin="round"/>
<path d="M18.2021 19.2729H19.2729" stroke="#EA543F" stroke-width="2.14144" stroke-linecap="round" stroke-linejoin="round"/>
<path d="M12.8486 19.2729H13.9194" stroke="#EA543F" stroke-width="2.14144" stroke-linecap="round" stroke-linejoin="round"/>
<path d="M7.49512 19.2729H8.56584" stroke="#EA543F" stroke-width="2.14144" stroke-linecap="round" stroke-linejoin="round"/>
</svg>
