<svg width="26" height="26" viewBox="0 0 26 26" fill="none" xmlns="http://www.w3.org/2000/svg">
<path d="M20.3439 18.2023H22.4853C23.1277 18.2023 23.556 17.774 23.556 17.1316V13.9194C23.556 12.9558 22.8065 12.0992 21.9499 11.8851C20.0226 11.3497 17.1317 10.7073 17.1317 10.7073C17.1317 10.7073 15.7398 9.20827 14.7761 8.24462C14.2408 7.81633 13.5983 7.49512 12.8488 7.49512H5.35377C4.71133 7.49512 4.17597 7.92341 3.85476 8.45877L2.35575 11.5639C2.21396 11.9774 2.1416 12.4116 2.1416 12.8487V17.1316C2.1416 17.774 2.56989 18.2023 3.21232 18.2023H5.35377" stroke="white" stroke-width="2.14144" stroke-linecap="round" stroke-linejoin="round"/>
<path d="M7.49496 20.3434C8.67764 20.3434 9.6364 19.3847 9.6364 18.202C9.6364 17.0193 8.67764 16.0605 7.49496 16.0605C6.31227 16.0605 5.35352 17.0193 5.35352 18.202C5.35352 19.3847 6.31227 20.3434 7.49496 20.3434Z" stroke="white" stroke-width="2.14144" stroke-linecap="round" stroke-linejoin="round"/>
<path d="M9.63672 18.2021H16.061" stroke="white" stroke-width="2.14144" stroke-linecap="round" stroke-linejoin="round"/>
<path d="M18.2025 20.3434C19.3852 20.3434 20.3439 19.3847 20.3439 18.202C20.3439 17.0193 19.3852 16.0605 18.2025 16.0605C17.0198 16.0605 16.061 17.0193 16.061 18.202C16.061 19.3847 17.0198 20.3434 18.2025 20.3434Z" stroke="white" stroke-width="2.14144" stroke-linecap="round" stroke-linejoin="round"/>
</svg>
